<svg xmlns="http://www.w3.org/2000/svg" viewBox="0 0 22.98 23.63"><defs><style>.cls-1{fill:#fff;}</style></defs><g id="Capa_2" data-name="Capa 2"><g id="Capa_1-2" data-name="Capa 1"><path class="cls-1" d="M10.65,12.57a.46.46,0,0,1-.34-.15l-2-2.25H1.88A2,2,0,0,1,0,8V1.46A1.37,1.37,0,0,1,1.27,0H12.48a1.37,1.37,0,0,1,1.27,1.46V8a2,2,0,0,1-1.88,2.18h-.73v1.88a.52.52,0,0,1-.28.47A.41.41,0,0,1,10.65,12.57ZM1.27,1.05c-.16,0-.3.19-.3.41V8a1,1,0,0,0,.91,1.13H8.5a.5.5,0,0,1,.35.16l1.32,1.48V9.64a.51.51,0,0,1,.48-.52h1.22A1,1,0,0,0,12.78,8V1.46c0-.22-.14-.41-.3-.41Z"/><path class="cls-1" d="M22.44,23.63a.55.55,0,0,1-.55-.55,4.73,4.73,0,0,0-9.46,0,.55.55,0,1,1-1.09,0,5.82,5.82,0,0,1,11.64,0A.54.54,0,0,1,22.44,23.63Z"/><path class="cls-1" d="M17.16,17.59A3.85,3.85,0,1,1,21,13.74,3.86,3.86,0,0,1,17.16,17.59Zm0-6.61a2.76,2.76,0,1,0,2.76,2.76A2.76,2.76,0,0,0,17.16,11Z"/></g></g></svg>