<svg xmlns="http://www.w3.org/2000/svg" viewBox="0 0 27.41 22.56"><defs><style>.cls-1{fill:#fff;}.cls-1:hover{fill:#000;}</style></defs><g id="Capa_2" data-name="Capa 2"><g id="Capa_1-2" data-name="Capa 1"><path class="cls-1" d="M9.94,15A.55.55,0,0,0,11,15,5.52,5.52,0,0,0,6.75,9.58a3.66,3.66,0,1,0-2.46,0A5.52,5.52,0,0,0,0,15a.55.55,0,1,0,1.1,0,4.42,4.42,0,0,1,8.84,0ZM3,6.15A2.56,2.56,0,1,1,5.52,8.71,2.57,2.57,0,0,1,3,6.15Z"/><path class="cls-1" d="M23.12,14.49a3.66,3.66,0,1,0-2.46,0,5.53,5.53,0,0,0-4.29,5.38.55.55,0,1,0,1.09,0,4.43,4.43,0,0,1,8.85,0,.55.55,0,1,0,1.1,0A5.53,5.53,0,0,0,23.12,14.49Zm-3.8-3.43a2.57,2.57,0,1,1,2.57,2.57A2.57,2.57,0,0,1,19.32,11.06Z"/><path class="cls-1" d="M11.05,4h7.56L16.76,5.8a.57.57,0,0,0,.41,1,.56.56,0,0,0,.4-.17l2.81-2.81a.58.58,0,0,0,0-.81L17.57.17A.57.57,0,0,0,17.16,0a.56.56,0,0,0-.4.17.58.58,0,0,0-.16.4.59.59,0,0,0,.16.4l1.86,1.85H11.05a.57.57,0,1,0,0,1.13Z"/><path class="cls-1" d="M14.08,18.61H6.51l1.85-1.85a.57.57,0,1,0-.8-.8L4.74,18.78a.58.58,0,0,0-.16.4.55.55,0,0,0,.16.4L7.56,22.4a.58.58,0,0,0,.8,0,.57.57,0,0,0,0-.8L6.51,19.75h7.57a.57.57,0,0,0,0-1.14Z"/></g></g></svg>