<svg xmlns="http://www.w3.org/2000/svg" viewBox="0 0 21.91 24.31"><defs><style>.cls-1{fill:#fff;}</style></defs><g id="Capa_2" data-name="Capa 2"><g id="Capa_1-2" data-name="Capa 1"><path class="cls-1" d="M2.32,0H15.77a2.62,2.62,0,0,1,2.62,2.62V7.31a.43.43,0,1,1-.86,0V2.62A1.75,1.75,0,0,0,15.77.87H2.32A1.45,1.45,0,0,0,.87,2.32V22a1.45,1.45,0,0,0,1.45,1.46H16.07A1.46,1.46,0,0,0,17.53,22V19.13a.43.43,0,0,1,.86,0V22a2.33,2.33,0,0,1-2.32,2.33H2.32A2.33,2.33,0,0,1,0,22V2.32A2.32,2.32,0,0,1,2.32,0Z"/><path class="cls-1" d="M21.55,18.56a.36.36,0,0,1-.36-.36,3.39,3.39,0,1,0-6.77,0,.36.36,0,1,1-.72,0,4.11,4.11,0,1,1,8.21,0A.36.36,0,0,1,21.55,18.56Z"/><path class="cls-1" d="M17.8,14.27a2.71,2.71,0,1,1,2.71-2.71A2.71,2.71,0,0,1,17.8,14.27Zm0-4.69a2,2,0,1,0,2,2A2,2,0,0,0,17.8,9.58Z"/><path class="cls-1" d="M15.56,15.41a.35.35,0,0,1-.35-.35,1.93,1.93,0,0,0-3.86,0,.35.35,0,1,1-.69,0,2.63,2.63,0,1,1,5.25,0A.35.35,0,0,1,15.56,15.41Z"/><path class="cls-1" d="M13.28,12.8A1.78,1.78,0,1,1,15.06,11,1.78,1.78,0,0,1,13.28,12.8Zm0-2.85A1.08,1.08,0,1,0,14.36,11,1.07,1.07,0,0,0,13.28,10Z"/><path class="cls-1" d="M7.38,11.9H4.17a.38.38,0,0,1-.37-.37.37.37,0,0,1,.37-.37H7.38a.36.36,0,0,1,.37.37A.37.37,0,0,1,7.38,11.9Z"/><path class="cls-1" d="M7.38,14.68H4.17a.37.37,0,0,1-.37-.37.38.38,0,0,1,.37-.37H7.38a.37.37,0,0,1,.37.37A.36.36,0,0,1,7.38,14.68Z"/><path class="cls-1" d="M9.2,9h-5a.37.37,0,0,1-.37-.37.38.38,0,0,1,.37-.37h5a.38.38,0,0,1,.37.37A.37.37,0,0,1,9.2,9Z"/><path class="cls-1" d="M12.05,6H4.17a.38.38,0,0,1-.37-.37.37.37,0,0,1,.37-.37h7.88a.36.36,0,0,1,.37.37A.37.37,0,0,1,12.05,6Z"/></g></g></svg>